<?xml version="1.0" encoding="UTF-8" standalone="no"?>
<svg
   xmlns:dc="http://purl.org/dc/elements/1.1/"
   xmlns:cc="http://creativecommons.org/ns#"
   xmlns:rdf="http://www.w3.org/1999/02/22-rdf-syntax-ns#"
   xmlns:svg="http://www.w3.org/2000/svg"
   xmlns="http://www.w3.org/2000/svg"
   version="1.1"
   id="svg2"
   viewBox="0 0 1106.8343 435.97088"
   height="123.04067mm"
   width="312.37323mm">
  <defs
     id="defs4" />
  <metadata
     id="metadata7">
    <rdf:RDF>
      <cc:Work
         rdf:about="">
        <dc:format>image/svg+xml</dc:format>
        <dc:type
           rdf:resource="http://purl.org/dc/dcmitype/StillImage" />
        <dc:title></dc:title>
      </cc:Work>
    </rdf:RDF>
  </metadata>
  <g
     transform="translate(758.37119,107.22024)"
     id="layer1">
    <g
       style="fill:#ffffff"
       transform="matrix(0.64096786,0.3090248,-0.3090248,0.64096786,-45.945728,-709.38194)"
       id="g4147">
      <path
         id="path4153"
         d="m 393.57144,1147.4179 c -15.56284,-2.4464 -28.87729,-6.5325 -42.61639,-13.0786 -17.73322,-8.4492 -30.47631,-17.4289 -44.3859,-31.2775 -46.68666,-46.4818 -59.24239,-116.04247 -31.75,-175.89975 17.42527,-37.93885 52.522,-69.29402 92.50229,-82.64089 36.03529,-12.02989 79.32294,-10.00744 112.53248,5.25763 l 8.78246,4.03695 22.24255,-61.35753 22.24255,-61.35753 -7.08246,-12.16073 -7.08248,-12.16073 14.18245,-15.59904 14.18245,-15.59903 30.79187,-0.047 30.79189,-0.047 0.58523,8.4375 c 0.32187,4.64062 0.35421,8.85937 0.0719,9.375 -0.28236,0.51562 -12.5301,0.9375 -27.2172,0.9375 l -26.70382,0 -4.47241,5.225 c -2.45984,2.87375 -4.47243,5.70576 -4.47243,6.29336 0,0.5876 2.53125,5.52933 5.625,10.98164 3.09375,5.4523 5.625,10.48657 5.625,11.18726 0,0.70069 -3.375,13.15014 -7.5,27.66544 -4.125,14.5153 -7.5,26.61777 -7.5,26.89438 0,0.2766 48.88247,0.50292 108.62771,0.50292 l 108.62773,0 1.37227,-3.93653 c 1.95493,-5.60788 1.92496,-5.65784 -3.94021,-6.57164 -13.7522,-2.14259 -40.64361,-12.06411 -48.0873,-17.74169 -5.12091,-3.90591 -5.4428,-8.3128 -0.82805,-11.3365 2.79149,-1.82906 11.92658,-2.57467 62.1875,-5.07583 32.40344,-1.61251 61.89704,-2.72141 65.54131,-2.46422 12.67856,0.89477 13.10762,6.96536 1.32513,18.74938 -8.46159,8.46269 -18.22865,13.35589 -32.99098,16.52816 l -10.03082,2.15551 -3.90667,10.96924 -3.90665,10.96923 25.01175,31.06494 c 13.75647,17.08572 25.41943,31.22067 25.9177,31.41101 0.49829,0.19034 5.36065,-1.88105 10.80528,-4.60307 20.49091,-10.24439 39.97135,-14.98608 65.67687,-15.98625 35.9333,-1.39813 64.10834,6.64342 94.29846,26.91412 9.9887,6.70671 26.314,21.81355 34.6666,32.07914 5.5937,6.8747 14.8508,21.99509 19.0096,31.04987 27.4924,59.85728 14.9367,129.41798 -31.75,175.89978 -60.23143,59.9672 -153.7482,61.5406 -216.75519,3.6469 -18.94766,-17.41 -37.44958,-46.7272 -43.37369,-68.7277 -1.14854,-4.2653 -1.7638,-4.9234 -4.11199,-4.3984 -1.51875,0.3396 -12.01153,2.2977 -23.3173,4.3514 -15.88005,2.8846 -20.82968,4.2394 -21.75938,5.9561 -0.6619,1.2221 -3.41952,4.2955 -6.12803,6.8297 l -4.92457,4.6076 4.05577,19.4549 4.05579,19.4549 5.44067,0 c 4.8038,0 5.44269,0.3292 5.45775,2.8125 0.01,1.5469 0.3451,4.0355 0.74603,5.5302 0.64963,2.4221 0.13777,2.791 -4.70458,3.3904 -2.98842,0.3699 -10.91789,0.8966 -17.62101,1.1705 l -12.1875,0.498 0,-6.0758 c 0,-5.9176 0.0976,-6.0758 3.75,-6.0758 2.0625,0 3.74519,-0.4219 3.7393,-0.9375 -0.0163,-1.4209 -9.798,-38.0588 -10.23426,-38.3327 -0.20903,-0.1312 -2.72948,-1.2597 -5.60102,-2.5078 -9.80272,-4.2605 -14.46617,-11.5895 -13.99166,-21.9888 l 0.26608,-5.8313 -71.68868,-81.13851 C 562.25744,900.12448 527.6153,861.01574 524.70369,857.8423 l -5.29384,-5.76987 -3.0956,8.6849 -3.09559,8.6849 10.63583,10.20997 c 23.38794,22.4515 39.21891,50.72692 46.07177,82.28794 3.20294,14.75116 3.74484,39.61356 1.19569,54.85856 -5.65435,33.8154 -19.84419,61.5763 -43.78232,85.6554 -14.29667,14.3808 -26.81827,23.2711 -44.90179,31.8803 -27.2192,12.9585 -59.46254,17.7056 -88.8664,13.0835 z m 57.5,-33.7175 c 75.41036,-22.64 112.53606,-105.3438 78.70044,-175.31851 -6.65666,-13.76647 -23.41395,-36.64471 -26.84063,-36.64471 -0.42612,0 -2.07692,3.23437 -3.66844,7.1875 -10.8623,26.98064 -29.54226,51.86466 -54.18977,72.1875 -8.14911,6.71926 -10.79929,9.6843 -11.41904,12.7757 -1.71521,8.55592 -11.36142,15.16272 -19.3814,13.27472 -17.07716,-4.0204 -17.92824,-28.099 -1.17064,-33.11969 5.6593,-1.69558 19.13614,-12.77916 30.97278,-25.47254 9.05161,-9.70678 19.89569,-25.72013 24.6992,-36.47309 2.48019,-5.55205 10.4225,-27.30484 10.4225,-28.54564 0,-0.11912 -4.61023,-2.32395 -10.24494,-4.89965 -17.0923,-7.81309 -31.37946,-10.91914 -51.00506,-11.08855 -9.67749,-0.0835 -20.0739,0.54311 -24.375,1.4692 -40.79095,8.78294 -72.46447,33.20773 -89.9701,69.37975 -23.31021,48.16605 -13.46438,105.43601 24.59931,143.08611 18.31871,18.1197 38.03011,28.8459 63.63701,34.6289 5.69518,1.2861 13.7169,1.6808 27.98378,1.3767 17.35699,-0.3699 21.48669,-0.8726 31.25,-3.8037 z m 503.75,0 c 75.35206,-22.6225 112.53436,-105.4173 78.72006,-175.28801 -17.5063,-36.1735 -49.37058,-60.73742 -89.97006,-69.35722 -9.81055,-2.08291 -36.25891,-2.04639 -48.125,0.0665 -15.54879,2.76857 -40,11.24838 -40,13.8722 0,0.50338 14.94384,20.8172 33.20852,45.1418 23.02504,30.66435 34.23704,44.60986 36.5625,45.47655 9.18882,3.4246 12.72898,8.13385 12.72898,16.93256 0,12.00432 -7.87136,17.48612 -23.20029,16.15712 -4.29319,-0.3722 -111.81997,19.8574 -113.49996,21.3533 -1.27335,1.1339 2.03314,11.7611 6.396,20.557 16.49195,33.2493 48.47772,58.1742 85.92925,66.9605 8.12944,1.9072 13.74112,2.2674 30,1.9256 17.3683,-0.3651 21.48032,-0.8648 31.25,-3.7979 z M 742.57995,1008.5983 c 9.76718,-1.0236 18.62655,-1.8611 19.6875,-1.8611 1.62303,0 1.92899,-2.2051 1.92899,-13.9021 0,-43.0026 13.07598,-77.7721 41.25674,-109.7032 l 9.85688,-11.16865 -18.92507,-22.64797 c -12.17566,-14.57084 -19.22531,-22.07826 -19.76695,-21.05054 -0.91,1.7267 -59.9216,181.63426 -59.9216,182.68186 0,0.3484 1.82812,0.3813 4.0625,0.073 2.23438,-0.3081 12.05383,-1.3977 21.82101,-2.4214 z m 106.94708,-17.55552 c 27.62368,-4.50693 50.33831,-8.30784 50.47695,-8.44646 0.23051,-0.23053 -38.41631,-50.76545 -57.88313,-75.68852 l -8.16567,-10.45436 -5.61885,5.45436 c -12.08458,11.73083 -22.00892,28.68543 -27.12132,46.33364 -5.44371,18.79193 -7.86912,50.99574 -3.84072,50.99574 1.06032,0 24.52905,-3.68749 52.15274,-8.1944 z m -173.3764,-20.0601 c -0.48488,-1.93194 -1.8002,-2.95546 -4.14474,-3.22526 -3.14436,-0.36185 -3.46663,-0.89674 -3.81544,-6.33274 l -0.38098,-5.9375 15.06848,0 15.06849,0 0,6.25 c 0,5.80132 -0.22011,6.25 -3.06611,6.25 -2.95959,0 -3.04035,0.22799 -2.32485,6.5625 0.72665,6.43327 1.2193,8.1253 2.06239,7.08334 0.63642,-0.78657 55.87298,-169.12778 55.84921,-170.20834 -0.0245,-1.11218 -183.2756,-0.96865 -203.03893,0.15902 l -13.64328,0.77848 -1.44952,4.3194 -1.44951,4.31939 72.5928,81.67516 72.5928,81.67515 0.39474,-5.26929 c 0.21711,-2.8981 0.0751,-6.5428 -0.31555,-8.09931 z"
         style="fill:#ffffff;fill-opacity:1" />
      <path
         id="path4151"
         d="m 402.51054,1147.908 c -12.85564,-1.1398 -20.11576,-2.6535 -33.9391,-7.0762 -11.00376,-3.5206 -29.36001,-12.2959 -38.125,-18.2258 -33.74891,-22.8327 -57.96642,-58.714 -66.3924,-98.3688 -3.5822,-16.8587 -3.85316,-45.36438 -0.57626,-60.62502 6.99059,-32.55554 20.7225,-58.20923 43.17847,-80.66519 27.72689,-27.7269 62.21578,-43.29779 101.29019,-45.73004 23.48094,-1.46161 50.96516,3.44264 70.89366,12.65017 5.22643,2.41476 9.727,4.16606 10.00128,3.8918 0.89675,-0.89675 44.10542,-120.8303 44.09155,-122.3841 -0.008,-0.83195 -3.03607,-6.66775 -6.73029,-12.96844 l -6.71678,-11.4558 14.3741,-15.7536 14.37409,-15.75359 30.1687,0.33439 30.16869,0.3344 0.36961,8.4375 0.36961,8.4375 -26.0416,0 -26.0416,0 -5.99493,6.08645 -5.99493,6.08645 6.30686,11.18794 6.30687,11.18794 -7.45245,26.45641 c -4.09884,14.55102 -7.45244,27.03064 -7.45244,27.73247 0,0.86077 35.45355,1.17213 108.93678,0.9567 l 108.93677,-0.31936 1.55872,-4.50245 1.55873,-4.50245 -10.183,-2.17312 c -11.33946,-2.41991 -30.92323,-9.34699 -39.60294,-14.00818 -9.36336,-5.02832 -11.09526,-11.15077 -3.976,-14.05552 3.29905,-1.34605 89.19281,-6.12355 117.43128,-6.53164 15.2337,-0.22016 17.83966,0.66136 17.83966,6.03461 0,4.73989 -13.50466,18.10128 -22.27225,22.03593 -7.29334,3.27306 -20.27604,7.07782 -24.15109,7.07782 -3.46087,0 -5.29096,2.73595 -9.04657,13.52454 l -3.53833,10.16438 15.3809,19.09304 c 8.4595,10.50116 20.0737,24.83436 25.80933,31.85154 l 10.42842,12.75851 7.75729,-4.22645 c 10.04516,-5.47295 30.49076,-12.51046 44.33102,-15.25904 13.26012,-2.63336 45.6706,-2.93816 57.80128,-0.5436 56.18406,11.0906 102.48026,51.08113 119.94606,103.60894 6.2565,18.81641 7.9169,29.18318 7.9525,49.65314 0.026,14.75392 -0.5628,21.54722 -2.7615,31.87502 -9.9537,46.7545 -40.2992,86.2345 -82.63706,107.5125 -44.49584,22.3625 -95.67724,22.3554 -140.01636,-0.019 -14.34513,-7.2389 -26.5437,-16.3168 -40.14444,-29.8744 -18.06171,-18.0045 -29.27421,-35.3857 -36.76631,-56.9937 -1.907,-5.5 -3.85971,-10.4531 -4.33935,-11.0068 -1.16064,-1.3399 -46.72338,6.8078 -47.33667,8.4649 -0.26296,0.7105 -3.13918,3.8914 -6.39159,7.0687 l -5.91348,5.7767 3.55056,16.7233 c 1.9528,9.1977 3.84728,17.9566 4.20994,19.4641 0.52966,2.2016 1.70349,2.8165 5.96605,3.125 5.24569,0.3797 5.31096,0.4429 5.68174,5.5065 l 0.37507,5.1224 -10.37507,0.8076 c -5.7063,0.4442 -13.32822,0.811 -16.93759,0.8151 l -6.5625,0.01 0,-5.625 c 0,-5.4167 0.13889,-5.625 3.75,-5.625 2.0625,0 3.76195,-0.4219 3.77656,-0.9375 0.0146,-0.5156 -2.0755,-9.5121 -4.64471,-19.9921 l -4.67128,-19.0546 -4.41778,-1.4474 c -10.6141,-3.4777 -15.5351,-10.2023 -15.61544,-21.3389 l -0.0523,-7.2585 -76.79036,-86.88267 c -42.2347,-47.78545 -77.16293,-86.45079 -77.61829,-85.92299 -0.45536,0.5278 -2.10394,4.46198 -3.6635,8.74261 l -2.83558,7.78298 11.22938,10.96702 c 23.60752,23.05597 38.82659,50.385 45.43717,81.59203 3.89514,18.38802 3.89293,44.13252 -0.005,62.50002 -9.91405,46.7117 -40.2884,86.2335 -82.62845,107.5125 -19.25,9.6746 -35.58673,14.2537 -57.89912,16.2289 -7.68674,0.6805 -14.25713,1.1636 -14.60088,1.0736 -0.34375,-0.09 -5.6024,-0.6049 -11.6859,-1.1442 z m 32.9359,-30.4975 c 27.36245,-4.1752 50.82202,-16.19 70.65501,-36.1859 19.16196,-19.3194 30.2609,-40.8089 34.94246,-67.655 6.68845,-38.35441 -6.48002,-81.27695 -32.91433,-107.28398 -6.0247,-5.92734 -6.19885,-6.00409 -7.09092,-3.125 -2.31033,7.45654 -12.47567,27.37502 -18.8924,37.01878 -7.92101,11.90454 -26.13816,31.49662 -39.29447,42.26022 -5.31314,4.34683 -8.99,8.38027 -9.4706,10.38901 -2.41278,10.08457 -8.35373,14.60917 -17.78645,13.54597 -8.16202,-0.92 -13.8983,-7.2611 -13.8983,-15.3637 0,-3.16965 0.91999,-7.32041 2.04442,-9.22393 2.18885,-3.70542 7.73714,-7.54979 10.89605,-7.54979 4.6329,0 31.80978,-25.82186 41.56508,-39.49269 6.85786,-9.61045 15.27088,-26.53182 20.02457,-40.27612 4.22912,-12.22757 4.66825,-11.47973 -10.43266,-17.76627 -14.37616,-5.9848 -27.05005,-8.80868 -43.10005,-9.60317 -37.55984,-1.85924 -70.74785,11.49894 -97.39282,39.20061 -36.00542,37.43336 -44.93127,93.89326 -22.30085,141.06266 5.92807,12.3561 13.68413,23.1681 24.29124,33.8624 29.0672,29.3059 67.96147,42.3189 108.15502,36.1859 z m 503.75,0 c 40.93854,-6.2468 77.15556,-32.9666 94.94626,-70.0483 18.9135,-39.4222 15.9397,-86.55465 -7.751,-122.84516 -23.7123,-36.32352 -63.27721,-57.77986 -106.54461,-57.77986 -13.07049,0 -29.55287,2.29696 -41.90065,5.8392 -6.0565,1.73745 -22.15035,8.39449 -23.4597,9.70384 -0.92907,0.92907 67.34724,90.8367 69.45735,91.46285 12.00784,3.56311 17.46384,15.42675 11.55295,25.12092 -3.44556,5.65091 -9.04224,8.24261 -16.14525,7.47641 -4.1125,-0.4435 -22.26864,2.4864 -62.92444,10.1545 l -57.1441,10.778 0.74338,3.1696 c 1.49493,6.3743 8.2098,20.9054 13.88367,30.0447 6.90806,11.1272 23.98143,28.7223 35.1376,36.2113 27.13001,18.2121 58.81836,25.4926 90.14854,20.712 z m -202.34851,-107.553 c 9.88542,-1.0338 20.22351,-2.1729 22.97351,-2.5312 l 5,-0.6515 0.16754,-17.78133 c 0.39651,-42.08085 14.61778,-77.73178 42.91632,-107.5858 l 8.4794,-8.94549 -16.83778,-20 c -9.26081,-11 -18.12942,-21.63006 -19.70804,-23.62238 l -2.87024,-3.62236 -21.45574,65.49736 c -11.80065,36.02357 -25.59925,78.013 -30.66355,93.30988 -6.23449,18.83142 -8.68586,27.81252 -7.59138,27.81252 0.88903,0 9.70452,-0.8459 19.58996,-1.8797 z m 110.77425,-17.93818 c 28.35291,-4.67058 51.86624,-8.80745 52.25183,-9.19305 1.05189,-1.05189 -64.62806,-85.98909 -66.49334,-85.98909 -2.44131,0 -17.55144,18.30122 -22.70499,27.5 -6.4073,11.43669 -10.92597,24.96727 -13.17327,39.44579 -2.23301,14.38653 -3.65785,36.82183 -2.33498,36.76623 0.49721,-0.021 24.10185,-3.85931 52.45475,-8.52988 z m -170.55113,-15.45773 -0.72546,-9.59218 -3.88708,-0.37862 c -3.50862,-0.34175 -3.92485,-0.835 -4.27503,-5.06611 l -0.38795,-4.6875 14.31672,0 c 15.59643,0 15.83419,0.11415 15.83419,7.60224 0,3.10777 -0.48775,3.64776 -3.2949,3.64776 -3.20065,0 -3.27218,0.16591 -2.5,5.79946 0.43719,3.18971 0.7949,6.95846 0.7949,8.375 0,1.53131 0.43854,2.09408 1.08162,1.38804 0.85698,-0.94086 49.26272,-146.17051 55.91189,-167.75 l 1.63691,-5.3125 -108.72115,0 -108.72115,0 -1.27366,3.34999 c -0.70051,1.84249 -1.38972,4.38456 -1.53156,5.64905 -0.16511,1.47191 26.05081,31.91667 72.8671,84.62113 40.21875,45.27714 73.23189,82.23757 73.36254,82.13425 0.13063,-0.10325 -0.0889,-4.50431 -0.48793,-9.78001 z"
         style="fill:#ffffff;fill-opacity:1" />
      <path
         id="path4149"
         d="m 390.89218,1146.0228 c -31.74594,-5.3325 -59.92279,-20.0465 -83.60883,-43.6606 -30.35719,-30.265 -45.58691,-67.0139 -45.58691,-110.00002 0,-40.88561 14.49065,-76.82994 43.0073,-106.6804 32.87987,-34.41778 77.12668,-51.27165 124.83022,-47.54859 18.2153,1.42163 34.60638,5.62554 52.68107,13.51141 3.37896,1.47423 6.56488,2.23878 7.07981,1.69899 0.51492,-0.53977 10.81424,-28.26266 22.88736,-61.60641 l 21.95113,-60.625 -5.78499,-10 c -3.18175,-5.5 -6.37524,-10.95017 -7.09666,-12.11149 -1.36989,-2.20521 -0.9338,-2.75106 19.53373,-24.45101 l 7.36882,-7.8125 29.7262,0 29.7262,0 0.79491,5.79946 c 1.57716,11.50669 4.19677,10.45054 -25.9209,10.45054 l -26.7158,0 -5.1592,5.59707 c -2.83756,3.07839 -5.1592,6.11147 -5.1592,6.74019 0,0.62871 2.53125,5.64424 5.625,11.1456 3.09375,5.50137 5.625,10.78745 5.625,11.74685 0,0.95941 -3.375,13.70062 -7.5,28.31381 -4.125,14.61319 -7.5,26.82834 -7.5,27.14479 0,0.31644 49.3028,0.43165 109.56178,0.25602 l 109.56177,-0.31933 1.7024,-4.91747 c 1.99925,-5.77488 1.49008,-6.32925 -6.97025,-7.58901 -7.36708,-1.09697 -30.01494,-8.65779 -38.17126,-12.7432 -8.28763,-4.15117 -10.68444,-6.38643 -10.68444,-9.96428 0,-5.78718 3.92526,-6.33786 65,-9.11903 31.28125,-1.42446 59.72061,-2.57914 63.19859,-2.56597 12.40951,0.047 13.52655,5.0542 3.59246,16.1033 -7.1688,7.97343 -19.81572,14.43837 -33.95383,17.35674 -8.95601,1.84869 -10.43456,2.53235 -11.42177,5.28125 -0.6237,1.73672 -2.55443,6.89091 -4.29049,11.45377 l -3.15649,8.2961 25.00344,31.0789 c 13.75189,17.0934 25.48715,31.5852 26.07838,32.20401 0.62775,0.65705 4.66813,-0.76305 9.712,-3.41352 11.26517,-5.91969 31.73332,-12.71155 45.86271,-15.21844 24.87639,-4.41366 56.47241,-1.86946 79.66709,6.41504 37.55577,13.41385 69.64137,41.84186 87.69997,77.70243 21.4128,42.52154 21.1701,95.8422 -0.6313,138.6629 -8.2628,16.2292 -15.8689,26.5297 -29.7965,40.3515 -29.6545,29.4293 -67.28997,44.9899 -108.81426,44.9899 -41.66975,0 -80.45094,-16.3931 -110.65031,-46.7726 -16.72307,-16.8229 -28.13375,-34.918 -36.31743,-57.5923 -2.55119,-7.0685 -4.68236,-11.1615 -5.73381,-11.0118 -0.9204,0.131 -11.5172,1.9702 -23.54845,4.0871 -18.86441,3.3193 -22.13305,4.2327 -23.75,6.6368 -2.53417,3.768 -6.4709,7.7127 -9.24794,9.2669 -2.18571,1.2231 -2.09725,2.1973 1.97763,21.7757 l 4.26569,20.4953 4.92358,0.4056 c 5.48775,0.4521 6.78384,1.7425 6.8119,6.7819 l 0.0191,3.4375 -9.19164,0 c -5.0554,0 -12.64915,0.3614 -16.875,0.8031 l -7.68336,0.803 0,-5.803 0,-5.8031 4.45924,0 c 3.65228,0 4.34582,-0.3959 3.83255,-2.1875 -0.34467,-1.2031 -2.65589,-10.0133 -5.13604,-19.5782 -2.48015,-9.5649 -4.77375,-17.8185 -5.09689,-18.3413 -0.32315,-0.5229 -2.28205,-1.3229 -4.35314,-1.7777 -4.65527,-1.0225 -10.67427,-5.9618 -13.18752,-10.8218 -1.13653,-2.1978 -1.78449,-6.3165 -1.62273,-10.3146 l 0.26928,-6.6558 -52.37599,-59.22407 C 593.42837,934.013 558.88194,894.95167 545.4653,879.78328 c -13.41665,-15.1684 -24.88594,-27.82465 -25.48731,-28.125 -0.60138,-0.30036 -2.63003,3.64382 -4.5081,8.76485 l -3.41468,9.31094 10.51021,9.9488 c 50.45234,47.75733 63.74829,122.05183 32.74174,182.95283 -8.26284,16.2292 -15.8689,26.5297 -29.79647,40.3515 -23.63702,23.4575 -51.74432,37.8628 -84.12369,43.1142 -14.03039,2.2755 -36.69064,2.2402 -50.49486,-0.079 z m 56.42926,-30.3204 c 39.21519,-10.9864 67.06445,-34.0314 83.787,-69.3331 9.4716,-19.9947 11.08446,-27.8685 11.06284,-54.00712 -0.0174,-20.91146 -0.26002,-23.29426 -3.43769,-33.75 -4.68772,-15.42434 -11.88019,-29.86044 -20.66645,-41.47995 -8.10926,-10.72423 -14.68048,-17.50194 -15.84226,-16.34015 -0.41121,0.41121 -3.20296,6.19944 -6.2039,12.86275 -11.4633,25.45319 -27.87435,46.84719 -50.33731,65.62139 -7.30084,6.10192 -12.68101,11.53884 -12.70157,12.83554 -0.10187,6.42512 -8.36682,14.61024 -14.76331,14.62074 -5.07252,0.01 -11.40456,-3.4915 -13.99031,-7.7326 -5.10901,-8.3798 -1.74956,-19.22737 7.14691,-23.07712 2.58282,-1.11768 6.00011,-2.63228 7.59398,-3.36581 4.67468,-2.15138 28.3279,-25.22367 35.1887,-34.32445 12.0698,-16.0105 28.52706,-52.91773 24.76618,-55.54093 -9.35191,-6.52294 -33.57386,-14.1085 -50.64447,-15.86027 -55.78275,-5.7244 -111.12224,29.08043 -130.23873,81.91145 -6.33095,17.49643 -7.98274,28.52675 -7.2624,48.49696 0.7546,20.92007 3.30841,31.82477 11.50579,49.12957 18.3743,38.7885 53.75306,65.2637 96.287,72.0548 9.03206,1.4421 40.07345,-0.2909 48.75,-2.7217 z m 503.75,0 c 39.21519,-10.9864 67.06446,-34.0314 83.78696,-69.3331 8.1974,-17.3048 10.7512,-28.2095 11.5058,-49.12957 0.7204,-19.97021 -0.9314,-31.00052 -7.2624,-48.49696 -10.6562,-29.44985 -34.0167,-55.22235 -62.97591,-69.47815 -28.39186,-13.97651 -59.93968,-16.77429 -93.40973,-8.28391 -15.18245,3.85135 -29.05513,10.05823 -28.09175,12.56877 0.38888,1.01339 15.67663,21.76988 33.97278,46.12551 28.02461,37.30607 33.84847,44.39954 36.96445,45.02273 4.9474,0.98949 9.36074,5.62524 11.20014,11.7646 1.30607,4.3593 1.19376,5.67033 -0.84157,9.82377 -1.29182,2.6362 -4.31752,6.10501 -6.72377,7.70841 -3.75869,2.5046 -5.3435,2.8038 -11.25,2.1243 -5.59559,-0.6438 -16.0635,0.9716 -56.25,8.6804 -27.15625,5.2092 -52.32813,10.0662 -55.9375,10.7933 -7.93809,1.599 -7.98768,1.9488 -2.25086,15.8758 15.66493,38.0291 49.87017,66.0821 91.93836,75.4019 14.06747,3.1166 42.45985,2.5205 55.625,-1.1678 z m -208.60173,-106.0388 22.64828,-2.1409 0.7285,-21.33026 c 0.75193,-22.01656 2.28868,-31.50429 7.72663,-47.70366 6.74294,-20.08691 17.23488,-37.47498 34.00737,-56.35968 l 9.08853,-10.23307 -19.54948,-23.26624 c -10.75221,-12.79644 -19.97933,-22.81655 -20.50471,-22.26692 -0.52538,0.54962 -14.30493,41.78056 -30.62122,91.62431 -16.31629,49.84375 -29.92443,91.32812 -30.24032,92.18752 -0.74679,2.0317 -0.0403,2.0182 26.71643,-0.5111 z m 106.72673,-17.52422 c 28.53125,-4.61104 52.07773,-8.52496 52.32549,-8.69761 0.24777,-0.17265 -14.37723,-19.5702 -32.5,-43.10567 -18.12276,-23.53547 -33.38847,-43.39526 -33.92378,-44.13285 -1.32991,-1.83244 -17.88215,15.7586 -23.19271,24.64827 -10.18555,17.05017 -15.86951,38.27982 -17.28195,64.54822 -0.67204,12.49854 -0.51016,15.09056 0.94335,15.10536 0.96504,0.01 25.09835,-3.75467 53.6296,-8.36572 z M 677.34828,974.68209 c -0.83016,-7.752 -0.93947,-7.94491 -4.50133,-7.94491 -3.02762,0 -3.65051,-0.51578 -3.65051,-3.02276 0,-1.66253 -0.34143,-3.91253 -0.75874,-5 -0.66501,-1.733 1.03349,-1.97724 13.75,-1.97724 l 14.50874,0 0,5 c 0,4.11599 -0.42896,5 -2.42623,5 -1.33442,0 -2.67266,0.42187 -2.97385,0.9375 -0.93415,1.59925 1.89659,18.07031 2.91702,16.97304 0.98539,-1.0596 57.48294,-171.8063 57.48321,-173.72559 9e-5,-0.58298 -49.05051,-0.91015 -109.00134,-0.72705 -84.77157,0.2589 -109.21939,0.6757 -109.98176,1.875 -0.53915,0.84815 -1.32719,3.34247 -1.7512,5.54294 -0.74169,3.84903 2.02013,7.14072 72.7941,86.75997 51.2013,57.60039 73.69845,82.07437 74.00389,80.50659 0.24136,-1.23891 0.056,-5.82778 -0.412,-10.19749 z"
         style="fill:#ffffff;fill-opacity:1" />
    </g>
    <g
       style="fill:#ffffff"
       transform="matrix(0.49435874,0,0,0.49435874,-656.84565,11.540719)"
       id="g3010">
      <path
         id="path3002"
         transform="matrix(2.0228225,0,0,2.0228225,-338.99595,191.33787)"
         d="m 565.80859,55.957031 a 16.849862,16.849862 0 0 0 -16.84961,16.84961 16.849862,16.849862 0 0 0 16.84961,16.849609 16.849862,16.849862 0 0 0 16.84961,-16.849609 16.849862,16.849862 0 0 0 -16.84961,-16.84961 z m -43.39648,21.669922 -5.54102,5.4375 c -3.0475,2.990871 -5.77009,5.858182 -6.04882,6.371094 -0.44071,0.810946 1.69275,3.131496 16.35546,17.798833 9.27393,9.27684 16.86133,17.1425 16.86133,17.47851 0,0.47566 -5.77263,0.63865 -26.07617,0.73828 l -26.07812,0.12891 -0.13477,8.0332 -0.13672,8.0332 25.5957,0.008 c 15.56862,0.005 25.88489,0.19257 26.33594,0.48242 0.58941,0.37876 -3.39016,4.54444 -19.40234,20.30273 l -20.14649,19.82617 0,19.73438 0,19.73633 61.67188,-0.125 61.67187,-0.12695 0.12891,-19.40821 0.12891,-19.41015 -20.15039,-20.00391 c -16.2172,-16.09847 -20.00695,-20.10044 -19.41016,-20.50195 0.47473,-0.31942 9.94732,-0.50092 26.32617,-0.50586 l 25.58203,-0.008 0,-8.1582 0,-8.15625 -26.11914,0 c -14.36527,0 -26.27291,-0.15571 -26.46289,-0.3457 -0.19003,-0.18999 7.27538,-7.97774 16.58984,-17.30664 l 16.93555,-16.96094 -5.91211,-5.927734 c -3.25179,-3.260272 -6.24919,-5.927735 -6.66015,-5.927735 -0.41091,0 -10.24986,9.498287 -21.86329,21.109375 L 565.33789,121.08398 543.875,99.355469 522.41211,77.626953 Z m 43.00977,69.072267 c 0.47685,0.076 10.66134,9.78191 22.63085,21.57031 l 21.76172,21.43359 -0.13476,7.24024 -0.13672,7.23828 -43.78906,0.12695 c -24.08409,0.0694 -43.94033,-0.0224 -44.12305,-0.20507 -0.18273,-0.18273 -0.33203,-3.45923 -0.33203,-7.28125 l 0,-6.94922 21.6289,-21.65625 c 14.42377,-14.44224 21.91589,-21.60975 22.49415,-21.51758 z m -144.47657,3.36328 c -11.52679,0 -19.65362,2.8533 -26.00195,9.12695 -4.00908,3.96192 -6.4601,8.40664 -8.17969,14.83789 -1.54206,5.76732 -1.54679,18.53141 -0.01,24.22266 3.76893,13.95544 12.99087,21.85751 27.99804,23.99023 4.01098,0.57002 12.31686,0.17479 16.70508,-0.79492 1.96726,-0.43473 5.46817,-1.69121 7.7793,-2.79101 7.86213,-3.7414 13.27893,-10.69521 15.89648,-20.4043 0.8892,-3.2982 1.06641,-5.30879 1.06641,-12.11133 0,-6.80254 -0.17721,-8.81312 -1.06641,-12.11133 -4.3112,-15.99123 -15.68374,-23.96484 -34.1875,-23.96484 z m -70.79101,0.0586 c -18.03036,0.20029 -31.76211,7.94577 -36.91992,21.03125 -3.05592,7.75292 -3.39314,20.01148 -0.76758,27.82813 4.3528,12.95889 16.16731,21.43404 32.3457,23.20312 5.22402,0.57123 7.95203,0.57935 13.48633,0.041 5.81252,-0.56539 13.53848,-2.306 13.84179,-3.11914 0.31761,-0.85146 -0.39575,-12.90594 -0.80273,-13.56445 -0.24532,-0.39694 -1.15606,-0.27534 -3.17578,0.42578 -9.7324,3.37847 -19.79653,3.253 -26.88281,-0.33789 -8.56359,-4.3395 -12.90766,-14.25625 -10.7461,-24.53321 2.31164,-10.99051 12.02312,-17.90967 23.91992,-17.04101 4.2093,0.30735 9.21626,1.50704 13.48633,3.23047 1.95604,0.78946 2.66835,0.89967 2.83399,0.4375 0.12161,-0.33935 0.51791,-3.59089 0.88086,-7.22461 0.53134,-5.31966 0.53759,-6.72803 0.0352,-7.23047 -1.01757,-1.01758 -11.33516,-2.79898 -17.87304,-3.08594 -1.23899,-0.0544 -2.46009,-0.0739 -3.66211,-0.0605 z m -253.875003,0.1621 c -4.779637,0.0151 -9.26435,0.3033 -11.732422,0.91992 -5.100611,1.27434 -10.425615,4.01937 -13.226563,6.82032 -3.422618,3.42261 -4.902022,6.91906 -5.208984,12.30273 -0.658842,11.55508 4.984167,17.83413 19.820313,22.05274 11.295385,3.2118 15.337359,7.28137 12.253906,12.33789 -1.474257,2.4176 -4.016076,3.34473 -9.796875,3.57617 -5.543472,0.22193 -10.216935,-0.57491 -15.871094,-2.70313 -1.767347,-0.66523 -3.48116,-1.10491 -3.810547,-0.97851 -0.921479,0.3536 -2.104451,14.60249 -1.255859,15.12695 1.052228,0.65031 8.027555,2.02126 12.445312,2.44727 19.411629,1.87189 33.040146,-2.83649 37.519536,-12.96289 1.55373,-3.51248 2.23991,-9.12652 1.61132,-13.1875 -1.43703,-9.284 -6.83523,-13.88413 -20.898434,-17.81055 -7.332961,-2.04735 -10.69773,-3.63456 -11.904297,-5.61328 -1.150422,-1.88666 -1.186546,-2.87365 -0.173828,-4.83203 1.180994,-2.28379 4.44812,-3.50703 10.09961,-3.7793 5.226119,-0.25177 10.590579,0.4245 14.623049,1.8418 1.46798,0.51593 2.78336,0.75536 2.92187,0.53125 0.13852,-0.22412 0.58286,-3.37699 0.98828,-7.00586 0.65856,-5.89472 0.65805,-6.65803 -0.0137,-7.15821 -1.63815,-1.2198 -10.42456,-1.95098 -18.390623,-1.92578 z m 122.562503,0.24219 c -2.97746,0.0228 -5.45587,0.1473 -5.83985,0.39649 -0.3078,0.19976 -2.49001,11.59926 -4.84765,25.33007 -2.35764,13.73082 -4.48418,25.163 -4.72657,25.40625 -0.57262,0.57466 -0.28989,1.92127 -5.47265,-26.13672 -2.49165,-13.48908 -4.7343,-24.37922 -5.0625,-24.58789 -0.32401,-0.206 -5.65421,-0.3769 -11.8457,-0.38086 -11.2134,-0.008 -11.25872,-0.004 -11.71094,1.10352 -0.2497,0.61177 -2.37469,12.45746 -4.72071,26.32422 -2.34601,13.86676 -4.46089,25.413 -4.69921,25.65625 -0.60895,0.62153 -0.56009,0.88455 -4.95508,-27.11524 -2.42973,-15.47942 -4.18801,-25.33634 -4.5625,-25.57421 -0.33516,-0.2129 -4.56568,-0.39058 -9.40039,-0.39454 -6.58204,-0.006 -8.84984,0.14667 -9.02735,0.60938 -0.19833,0.517 13.11885,63.01348 14.64258,68.7168 l 0.49414,1.85351 12.30078,0 12.30078,0 0.2754,-1.35937 c 0.15136,-0.74772 2.06368,-12.03878 4.25,-25.08985 3.93442,-23.48634 4.54765,-26.4646 5.13085,-24.96484 0.1586,0.40785 2.30153,11.75397 4.76368,25.21289 2.46214,13.45892 4.5973,24.86314 4.74414,25.34375 0.24714,0.80894 1.15478,0.86466 12.21875,0.74219 l 11.95117,-0.13281 7.9707,-34.85157 c 5.50762,-24.08459 7.81784,-35.04367 7.47852,-35.4707 -0.34068,-0.42875 -6.68797,-0.67476 -11.65039,-0.63672 z m 62.44336,0.10938 c -3.09012,-0.004 -6.78903,0.006 -11.17578,0.0293 l -23.91993,0.12696 -0.12695,35.4707 -0.12695,35.4707 24.96679,0 24.96875,0 0,-6.91406 0,-6.91406 -15.94336,-0.13086 -15.9414,-0.13086 0,-7.41602 0,-7.41406 14.33594,-0.24805 14.33593,-0.24609 0.13868,-6.79883 0.13671,-6.79687 -13.98047,-0.008 c -7.68877,-0.004 -14.26348,-0.18746 -14.61132,-0.4082 -0.47553,-0.30174 -0.59797,-2.11044 -0.49414,-7.28516 l 0.13867,-6.88281 15.57226,-0.24609 15.57227,-0.24805 0.13672,-5.98242 c 0.10725,-4.64263 -0.0161,-6.11099 -0.55078,-6.55469 -0.37908,-0.3146 -4.16128,-0.45949 -13.43164,-0.47265 z m 139.66015,13.5332 c 3.72045,-0.0109 4.49901,0.15058 6.79883,1.41797 6.05351,3.33598 8.91726,11.01298 8.39258,22.5 -0.42935,9.40006 -3.04832,15.51424 -7.93164,18.51953 -2.04441,1.25817 -2.9476,1.48449 -6.42578,1.60742 -5.65983,0.20004 -8.23554,-0.76893 -11.43164,-4.30664 -3.68567,-4.07959 -5.43235,-9.9182 -5.39063,-18.01563 0.0541,-10.50542 3.09299,-17.19441 9.26953,-20.40429 2.13506,-1.10958 3.15334,-1.30793 6.71875,-1.31836 z"
         style="fill:#ffffff;fill-opacity:1" />
    </g>
  </g>
</svg>
