<?xml version="1.0" encoding="UTF-8" standalone="no"?>
<!-- Generator: Adobe Illustrator 18.1.1, SVG Export Plug-In . SVG Version: 6.00 Build 0)  -->

<svg
   xmlns:dc="http://purl.org/dc/elements/1.1/"
   xmlns:cc="http://creativecommons.org/ns#"
   xmlns:rdf="http://www.w3.org/1999/02/22-rdf-syntax-ns#"
   xmlns:svg="http://www.w3.org/2000/svg"
   xmlns="http://www.w3.org/2000/svg"
   xmlns:sodipodi="http://sodipodi.sourceforge.net/DTD/sodipodi-0.dtd"
   xmlns:inkscape="http://www.inkscape.org/namespaces/inkscape"
   version="1.1"
   id="Capa_1"
   x="0px"
   y="0px"
   viewBox="0 0 29.26 29.26"
   style="enable-background:new 0 0 29.26 29.26;"
   xml:space="preserve"
   width="24px"
   height="24px"
   inkscape:version="0.91 r13725"
   sodipodi:docname="enterprise.svg"><metadata
     id="metadata47"><rdf:RDF><cc:Work
         rdf:about=""><dc:format>image/svg+xml</dc:format><dc:type
           rdf:resource="http://purl.org/dc/dcmitype/StillImage" /><dc:title></dc:title></cc:Work></rdf:RDF></metadata><defs
     id="defs45" /><sodipodi:namedview
     pagecolor="#ffffff"
     bordercolor="#666666"
     borderopacity="1"
     objecttolerance="10"
     gridtolerance="10"
     guidetolerance="10"
     inkscape:pageopacity="0"
     inkscape:pageshadow="2"
     inkscape:window-width="1920"
     inkscape:window-height="1018"
     id="namedview43"
     showgrid="false"
     inkscape:zoom="9.8333333"
     inkscape:cx="12"
     inkscape:cy="12"
     inkscape:window-x="-8"
     inkscape:window-y="-8"
     inkscape:window-maximized="1"
     inkscape:current-layer="Capa_1" /><g
     id="g3"
     style="fill:#ff9955"
     inkscape:export-xdpi="262.5"
     inkscape:export-ydpi="262.5"><path
       d="M14.627,15.954c-5.494,0-10.098-1.614-11.355-3.79c-0.221,0.383-0.35,0.781-0.35,1.194v3.561   c0,2.751,5.242,4.983,11.705,4.983c6.467,0,11.711-2.232,11.711-4.983v-3.561c0-0.413-0.131-0.811-0.354-1.194   C24.727,14.339,20.127,15.954,14.627,15.954z"
       fill="#000000"
       id="path5"
       style="fill:#ff9955" /><path
       d="M14.627,23.31c-5.494,0-10.098-1.616-11.355-3.788c-0.221,0.381-0.35,0.779-0.35,1.191v3.564   c0,2.752,5.242,4.983,11.705,4.983c6.467,0,11.711-2.23,11.711-4.983v-3.564c0-0.412-0.131-0.81-0.354-1.19   C24.727,21.694,20.127,23.31,14.627,23.31z"
       fill="#000000"
       id="path7"
       style="fill:#ff9955" /><path
       d="M26.018,5.042c-0.23,2.016-5.232,3.629-11.391,3.629c-6.156,0-11.158-1.613-11.387-3.628   C3.039,5.409,2.922,5.791,2.922,6.184v3.561c0,2.752,5.242,4.983,11.705,4.983c6.467,0,11.711-2.23,11.711-4.983V6.184   C26.338,5.791,26.219,5.409,26.018,5.042z"
       fill="#000000"
       id="path9"
       style="fill:#ff9955" /><path
       d="M14.627,7.541c6.303,0,11.41-1.687,11.41-3.771c0-2.082-5.107-3.77-11.41-3.77   C8.328,0.001,3.219,1.689,3.219,3.771C3.219,5.854,8.328,7.541,14.627,7.541z"
       fill="#000000"
       id="path11"
       style="fill:#ff9955" /></g><g
     id="g13" /><g
     id="g15" /><g
     id="g17" /><g
     id="g19" /><g
     id="g21" /><g
     id="g23" /><g
     id="g25" /><g
     id="g27" /><g
     id="g29" /><g
     id="g31" /><g
     id="g33" /><g
     id="g35" /><g
     id="g37" /><g
     id="g39" /><g
     id="g41" /></svg>