<?xml version="1.0" encoding="UTF-8" standalone="no"?>
<svg
   xmlns:dc="http://purl.org/dc/elements/1.1/"
   xmlns:cc="http://creativecommons.org/ns#"
   xmlns:rdf="http://www.w3.org/1999/02/22-rdf-syntax-ns#"
   xmlns:svg="http://www.w3.org/2000/svg"
   xmlns="http://www.w3.org/2000/svg"
   height="32px"
   width="32px"
   xml:space="preserve"
   style="enable-background:new 0 0 325 325;"
   viewBox="0 0 325 325"
   y="0px"
   x="0px"
   id="Capa_1"
   version="1.1"><metadata
     id="metadata43"><rdf:RDF><cc:Work
         rdf:about=""><dc:format>image/svg+xml</dc:format><dc:type
           rdf:resource="http://purl.org/dc/dcmitype/StillImage" /><dc:title></dc:title></cc:Work></rdf:RDF></metadata><defs
     id="defs41" /><g
     style="fill:#87de87"
     transform="matrix(-1,0,0,-1,325,325)"
     id="g3"><path
       style="fill:#87de87"
       id="path5"
       d="M 275.291,0 49.709,0 c -3.314,0 -6,2.687 -6,6 l 0,313 c 0,3.314 2.686,6 6,6 l 168.024,0 0,-59.075 c 0,-4.418 3.582,-8 8,-8 l 55.558,0 0,-251.925 c 0,-3.313 -2.687,-6 -6,-6 z" /><path
       style="fill:#87de87"
       id="path7"
       d="m 233.733,325 5.462,0 c 1.708,0 3.335,-0.728 4.474,-2.002 l 36.096,-40.387 c 0.983,-1.1 1.526,-2.523 1.526,-3.998 l 0,-4.689 -47.558,0 0,51.076 z" /></g><g
     id="g9" /><g
     id="g11" /><g
     id="g13" /><g
     id="g15" /><g
     id="g17" /><g
     id="g19" /><g
     id="g21" /><g
     id="g23" /><g
     id="g25" /><g
     id="g27" /><g
     id="g29" /><g
     id="g31" /><g
     id="g33" /><g
     id="g35" /><g
     id="g37" /><text
     id="text4171"
     y="205.19067"
     x="76.495079"
     style="font-style:normal;font-variant:normal;font-weight:bold;font-stretch:normal;font-size:89.87818909px;line-height:125%;font-family:'Open Sans';-inkscape-font-specification:'Open Sans Bold';letter-spacing:0px;word-spacing:0px;fill:#ffffff;fill-opacity:1;stroke:none;stroke-width:1px;stroke-linecap:butt;stroke-linejoin:miter;stroke-opacity:1"
     xml:space="preserve"><tspan
       style="font-style:normal;font-variant:normal;font-weight:bold;font-stretch:normal;font-family:'Open Sans';-inkscape-font-specification:'Open Sans Bold';fill:#ffffff"
       y="205.19067"
       x="76.495079"
       id="tspan4173">DBF</tspan></text>
</svg>